<svg width="180" height="180" viewBox="0 0 180 180" fill="none" xmlns="http://www.w3.org/2000/svg">
<rect width="180" height="180" fill="#5F51FF"/>
<path d="M82.9169 65.64V71H64.3969V43.28H70.6369V65.64H82.9169ZM87.5359 71V43.28H106.256V48.52H93.7759V53.96H104.856V59.08H93.7759V65.76H107.176V71H87.5359ZM15.7592 97.28C16.2392 98.16 16.7859 99.2533 17.3992 100.56C18.0392 101.84 18.6926 103.24 19.3592 104.76C20.0526 106.253 20.7326 107.787 21.3992 109.36C22.0659 110.933 22.6926 112.413 23.2792 113.8C23.8659 112.413 24.4926 110.933 25.1592 109.36C25.8259 107.787 26.4926 106.253 27.1592 104.76C27.8526 103.24 28.5059 101.84 29.1192 100.56C29.7592 99.2533 30.3192 98.16 30.7992 97.28H36.4792C36.7459 99.12 36.9859 101.187 37.1992 103.48C37.4392 105.747 37.6392 108.12 37.7992 110.6C37.9859 113.053 38.1459 115.52 38.2792 118C38.4392 120.48 38.5726 122.813 38.6792 125H32.5992C32.5192 122.307 32.4126 119.373 32.2792 116.2C32.1459 113.027 31.9459 109.827 31.6792 106.6C31.1992 107.72 30.6659 108.96 30.0792 110.32C29.4926 111.68 28.9059 113.04 28.3192 114.4C27.7592 115.76 27.2126 117.067 26.6792 118.32C26.1459 119.547 25.6926 120.6 25.3192 121.48H20.9592C20.5859 120.6 20.1326 119.547 19.5992 118.32C19.0659 117.067 18.5059 115.76 17.9192 114.4C17.3592 113.04 16.7859 111.68 16.1992 110.32C15.6126 108.96 15.0792 107.72 14.5992 106.6C14.3326 109.827 14.1326 113.027 13.9992 116.2C13.8659 119.373 13.7592 122.307 13.6792 125H7.59922C7.70589 122.813 7.82589 120.48 7.95922 118C8.11922 115.52 8.27922 113.053 8.43922 110.6C8.62589 108.12 8.82589 105.747 9.03922 103.48C9.27922 101.187 9.53255 99.12 9.79922 97.28H15.7592ZM50.1377 111.12C50.1377 112.48 50.2977 113.707 50.6177 114.8C50.9643 115.893 51.4443 116.84 52.0577 117.64C52.6977 118.413 53.471 119.013 54.3777 119.44C55.2843 119.867 56.3243 120.08 57.4977 120.08C58.6443 120.08 59.671 119.867 60.5777 119.44C61.511 119.013 62.2843 118.413 62.8977 117.64C63.5377 116.84 64.0177 115.893 64.3377 114.8C64.6843 113.707 64.8577 112.48 64.8577 111.12C64.8577 109.76 64.6843 108.533 64.3377 107.44C64.0177 106.32 63.5377 105.373 62.8977 104.6C62.2843 103.8 61.511 103.187 60.5777 102.76C59.671 102.333 58.6443 102.12 57.4977 102.12C56.3243 102.12 55.2843 102.347 54.3777 102.8C53.471 103.227 52.6977 103.84 52.0577 104.64C51.4443 105.413 50.9643 106.36 50.6177 107.48C50.2977 108.573 50.1377 109.787 50.1377 111.12ZM71.2977 111.12C71.2977 113.493 70.9377 115.587 70.2177 117.4C69.5243 119.187 68.5643 120.693 67.3377 121.92C66.111 123.12 64.6443 124.027 62.9377 124.64C61.2577 125.253 59.4443 125.56 57.4977 125.56C55.6043 125.56 53.8177 125.253 52.1377 124.64C50.4577 124.027 48.991 123.12 47.7377 121.92C46.4843 120.693 45.4977 119.187 44.7777 117.4C44.0577 115.587 43.6977 113.493 43.6977 111.12C43.6977 108.747 44.071 106.667 44.8177 104.88C45.5643 103.067 46.5643 101.547 47.8177 100.32C49.0977 99.0933 50.5643 98.1733 52.2177 97.56C53.8977 96.9467 55.6577 96.64 57.4977 96.64C59.391 96.64 61.1777 96.9467 62.8577 97.56C64.5377 98.1733 66.0043 99.0933 67.2577 100.32C68.511 101.547 69.4977 103.067 70.2177 104.88C70.9377 106.667 71.2977 108.747 71.2977 111.12ZM87.9392 125.56C85.9925 125.56 84.3125 125.293 82.8992 124.76C81.4859 124.2 80.3125 123.44 79.3792 122.48C78.4725 121.493 77.7925 120.333 77.3392 119C76.9125 117.64 76.6992 116.147 76.6992 114.52V97.28H82.9392V114C82.9392 115.12 83.0592 116.08 83.2992 116.88C83.5659 117.653 83.9125 118.293 84.3392 118.8C84.7925 119.28 85.3259 119.627 85.9392 119.84C86.5792 120.053 87.2725 120.16 88.0192 120.16C89.5392 120.16 90.7659 119.693 91.6992 118.76C92.6592 117.827 93.1392 116.24 93.1392 114V97.28H99.3792V114.52C99.3792 116.147 99.1525 117.64 98.6992 119C98.2459 120.36 97.5526 121.533 96.6192 122.52C95.6859 123.48 94.4992 124.227 93.0592 124.76C91.6192 125.293 89.9125 125.56 87.9392 125.56ZM113.54 120.24C114.42 120.24 115.14 120.173 115.7 120.04C116.287 119.88 116.754 119.68 117.1 119.44C117.447 119.173 117.687 118.867 117.82 118.52C117.954 118.173 118.02 117.787 118.02 117.36C118.02 116.453 117.594 115.707 116.74 115.12C115.887 114.507 114.42 113.853 112.34 113.16C111.434 112.84 110.527 112.48 109.62 112.08C108.714 111.653 107.9 111.133 107.18 110.52C106.46 109.88 105.874 109.12 105.42 108.24C104.967 107.333 104.74 106.24 104.74 104.96C104.74 103.68 104.98 102.533 105.46 101.52C105.94 100.48 106.62 99.6 107.5 98.88C108.38 98.16 109.447 97.6133 110.7 97.24C111.954 96.84 113.367 96.64 114.94 96.64C116.807 96.64 118.42 96.84 119.78 97.24C121.14 97.64 122.26 98.08 123.14 98.56L121.34 103.48C120.567 103.08 119.7 102.733 118.74 102.44C117.807 102.12 116.674 101.96 115.34 101.96C113.847 101.96 112.767 102.173 112.1 102.6C111.46 103 111.14 103.627 111.14 104.48C111.14 104.987 111.26 105.413 111.5 105.76C111.74 106.107 112.074 106.427 112.5 106.72C112.954 106.987 113.46 107.24 114.02 107.48C114.607 107.693 115.247 107.92 115.94 108.16C117.38 108.693 118.634 109.227 119.7 109.76C120.767 110.267 121.647 110.867 122.34 111.56C123.06 112.253 123.594 113.067 123.94 114C124.287 114.933 124.46 116.067 124.46 117.4C124.46 119.987 123.554 122 121.74 123.44C119.927 124.853 117.194 125.56 113.54 125.56C112.314 125.56 111.207 125.48 110.22 125.32C109.234 125.187 108.354 125.013 107.58 124.8C106.834 124.587 106.18 124.36 105.62 124.12C105.087 123.88 104.634 123.653 104.26 123.44L106.02 118.48C106.847 118.933 107.86 119.347 109.06 119.72C110.287 120.067 111.78 120.24 113.54 120.24ZM137.422 120.24C138.302 120.24 139.022 120.173 139.582 120.04C140.168 119.88 140.635 119.68 140.982 119.44C141.328 119.173 141.568 118.867 141.702 118.52C141.835 118.173 141.902 117.787 141.902 117.36C141.902 116.453 141.475 115.707 140.622 115.12C139.768 114.507 138.302 113.853 136.222 113.16C135.315 112.84 134.408 112.48 133.502 112.08C132.595 111.653 131.782 111.133 131.062 110.52C130.342 109.88 129.755 109.12 129.302 108.24C128.848 107.333 128.622 106.24 128.622 104.96C128.622 103.68 128.862 102.533 129.342 101.52C129.822 100.48 130.502 99.6 131.382 98.88C132.262 98.16 133.328 97.6133 134.582 97.24C135.835 96.84 137.248 96.64 138.822 96.64C140.688 96.64 142.302 96.84 143.662 97.24C145.022 97.64 146.142 98.08 147.022 98.56L145.222 103.48C144.448 103.08 143.582 102.733 142.622 102.44C141.688 102.12 140.555 101.96 139.222 101.96C137.728 101.96 136.648 102.173 135.982 102.6C135.342 103 135.022 103.627 135.022 104.48C135.022 104.987 135.142 105.413 135.382 105.76C135.622 106.107 135.955 106.427 136.382 106.72C136.835 106.987 137.342 107.24 137.902 107.48C138.488 107.693 139.128 107.92 139.822 108.16C141.262 108.693 142.515 109.227 143.582 109.76C144.648 110.267 145.528 110.867 146.222 111.56C146.942 112.253 147.475 113.067 147.822 114C148.168 114.933 148.342 116.067 148.342 117.4C148.342 119.987 147.435 122 145.622 123.44C143.808 124.853 141.075 125.56 137.422 125.56C136.195 125.56 135.088 125.48 134.102 125.32C133.115 125.187 132.235 125.013 131.462 124.8C130.715 124.587 130.062 124.36 129.502 124.12C128.968 123.88 128.515 123.653 128.142 123.44L129.902 118.48C130.728 118.933 131.742 119.347 132.942 119.72C134.168 120.067 135.662 120.24 137.422 120.24ZM153.743 125V97.28H172.463V102.52H159.983V107.96H171.063V113.08H159.983V119.76H173.383V125H153.743Z" fill="white"/>
</svg>
