<svg width="175" height="90" viewBox="0 0 175 90" fill="none" xmlns="http://www.w3.org/2000/svg">
<path d="M2.032 38V29.684H7.048V30.68H3.196V33.188H6.616V34.172H3.196V38H2.032ZM26.2853 34.52C26.4133 34.68 26.5733 34.892 26.7653 35.156C26.9653 35.412 27.1693 35.7 27.3773 36.02C27.5853 36.332 27.7893 36.66 27.9893 37.004C28.1973 37.348 28.3733 37.68 28.5173 38H27.2453C27.0853 37.696 26.9093 37.388 26.7173 37.076C26.5333 36.764 26.3453 36.468 26.1533 36.188C25.9613 35.9 25.7693 35.632 25.5773 35.384C25.3933 35.136 25.2253 34.92 25.0733 34.736C24.9693 34.744 24.8613 34.748 24.7493 34.748C24.6453 34.748 24.5373 34.748 24.4253 34.748H23.3813V38H22.2173V29.804C22.5453 29.724 22.9093 29.672 23.3093 29.648C23.7173 29.616 24.0893 29.6 24.4253 29.6C25.5933 29.6 26.4813 29.82 27.0893 30.26C27.7053 30.7 28.0133 31.356 28.0133 32.228C28.0133 32.78 27.8653 33.252 27.5693 33.644C27.2813 34.036 26.8533 34.328 26.2853 34.52ZM24.5213 30.62C24.0253 30.62 23.6453 30.632 23.3813 30.656V33.788H24.2093C24.6093 33.788 24.9693 33.768 25.2893 33.728C25.6093 33.688 25.8773 33.612 26.0933 33.5C26.3173 33.388 26.4893 33.232 26.6093 33.032C26.7293 32.824 26.7893 32.552 26.7893 32.216C26.7893 31.904 26.7293 31.644 26.6093 31.436C26.4893 31.228 26.3253 31.064 26.1173 30.944C25.9173 30.824 25.6773 30.74 25.3973 30.692C25.1253 30.644 24.8333 30.62 24.5213 30.62ZM43.0393 33.836C43.0393 33.124 43.1433 32.496 43.3513 31.952C43.5673 31.408 43.8553 30.956 44.2153 30.596C44.5833 30.228 45.0073 29.952 45.4873 29.768C45.9753 29.584 46.4913 29.492 47.0353 29.492C47.5713 29.492 48.0753 29.584 48.5473 29.768C49.0273 29.952 49.4473 30.228 49.8073 30.596C50.1673 30.956 50.4513 31.408 50.6593 31.952C50.8753 32.496 50.9833 33.124 50.9833 33.836C50.9833 34.548 50.8753 35.176 50.6593 35.72C50.4513 36.264 50.1673 36.72 49.8073 37.088C49.4473 37.448 49.0273 37.72 48.5473 37.904C48.0753 38.088 47.5713 38.18 47.0353 38.18C46.4913 38.18 45.9753 38.088 45.4873 37.904C45.0073 37.72 44.5833 37.448 44.2153 37.088C43.8553 36.72 43.5673 36.264 43.3513 35.72C43.1433 35.176 43.0393 34.548 43.0393 33.836ZM44.2633 33.836C44.2633 34.34 44.3273 34.8 44.4553 35.216C44.5833 35.624 44.7633 35.972 44.9953 36.26C45.2353 36.548 45.5233 36.772 45.8593 36.932C46.2033 37.084 46.5873 37.16 47.0113 37.16C47.4353 37.16 47.8153 37.084 48.1513 36.932C48.4873 36.772 48.7713 36.548 49.0033 36.26C49.2433 35.972 49.4273 35.624 49.5553 35.216C49.6833 34.8 49.7473 34.34 49.7473 33.836C49.7473 33.332 49.6833 32.876 49.5553 32.468C49.4273 32.052 49.2433 31.7 49.0033 31.412C48.7713 31.124 48.4873 30.904 48.1513 30.752C47.8153 30.592 47.4353 30.512 47.0113 30.512C46.5873 30.512 46.2033 30.592 45.8593 30.752C45.5233 30.904 45.2353 31.124 44.9953 31.412C44.7633 31.7 44.5833 32.052 44.4553 32.468C44.3273 32.876 44.2633 33.332 44.2633 33.836ZM70.1871 36.848C70.1071 36.656 69.9991 36.412 69.8631 36.116C69.7351 35.82 69.5951 35.5 69.4431 35.156C69.2911 34.812 69.1271 34.46 68.9511 34.1C68.7831 33.732 68.6231 33.388 68.4711 33.068C68.3191 32.74 68.1751 32.448 68.0391 32.192C67.9111 31.936 67.8071 31.74 67.7271 31.604C67.6391 32.548 67.5671 33.572 67.5111 34.676C67.4551 35.772 67.4071 36.88 67.3671 38H66.2271C66.2591 37.28 66.2951 36.556 66.3351 35.828C66.3751 35.092 66.4191 34.372 66.4671 33.668C66.5231 32.956 66.5791 32.264 66.6351 31.592C66.6991 30.92 66.7671 30.284 66.8391 29.684H67.8591C68.0751 30.036 68.3071 30.452 68.5551 30.932C68.8031 31.412 69.0511 31.916 69.2991 32.444C69.5471 32.964 69.7871 33.488 70.0191 34.016C70.2511 34.536 70.4631 35.012 70.6551 35.444C70.8471 35.012 71.0591 34.536 71.2911 34.016C71.5231 33.488 71.7631 32.964 72.0111 32.444C72.2591 31.916 72.5071 31.412 72.7551 30.932C73.0031 30.452 73.2351 30.036 73.4511 29.684H74.4711C74.7431 32.364 74.9471 35.136 75.0831 38H73.9431C73.9031 36.88 73.8551 35.772 73.7991 34.676C73.7431 33.572 73.6711 32.548 73.5831 31.604C73.5031 31.74 73.3951 31.936 73.2591 32.192C73.1311 32.448 72.9911 32.74 72.8391 33.068C72.6871 33.388 72.5231 33.732 72.3471 34.1C72.1791 34.46 72.0191 34.812 71.8671 35.156C71.7151 35.5 71.5711 35.82 71.4351 36.116C71.3071 36.412 71.2031 36.656 71.1231 36.848H70.1871ZM7.732 54C7.556 53.704 7.352 53.372 7.12 53.004C6.896 52.636 6.652 52.256 6.388 51.864C6.124 51.464 5.848 51.06 5.56 50.652C5.28 50.244 5 49.852 4.72 49.476C4.44 49.092 4.168 48.732 3.904 48.396C3.64 48.06 3.396 47.764 3.172 47.508V54H2.032V45.684H2.956C3.332 46.084 3.732 46.552 4.156 47.088C4.588 47.616 5.012 48.164 5.428 48.732C5.852 49.292 6.248 49.844 6.616 50.388C6.992 50.932 7.308 51.416 7.564 51.84V45.684H8.704V54H7.732ZM24.5025 54V45.684H29.5785V46.68H25.6665V49.152H29.1465V50.124H25.6665V53.004H29.8785V54H24.5025ZM48.3341 54.18C47.7501 54.18 47.2181 54.084 46.7381 53.892C46.2581 53.7 45.8461 53.42 45.5021 53.052C45.1581 52.684 44.8901 52.232 44.6981 51.696C44.5141 51.152 44.4221 50.532 44.4221 49.836C44.4221 49.14 44.5261 48.524 44.7341 47.988C44.9501 47.444 45.2381 46.988 45.5981 46.62C45.9581 46.252 46.3781 45.972 46.8581 45.78C47.3381 45.588 47.8501 45.492 48.3941 45.492C48.7381 45.492 49.0461 45.516 49.3181 45.564C49.5981 45.612 49.8381 45.668 50.0381 45.732C50.2461 45.796 50.4141 45.86 50.5421 45.924C50.6701 45.988 50.7581 46.036 50.8061 46.068L50.4701 47.028C50.3981 46.98 50.2941 46.928 50.1581 46.872C50.0221 46.816 49.8661 46.76 49.6901 46.704C49.5221 46.648 49.3341 46.604 49.1261 46.572C48.9261 46.532 48.7221 46.512 48.5141 46.512C48.0741 46.512 47.6781 46.588 47.3261 46.74C46.9741 46.892 46.6741 47.112 46.4261 47.4C46.1781 47.688 45.9861 48.04 45.8501 48.456C45.7221 48.864 45.6581 49.324 45.6581 49.836C45.6581 50.332 45.7141 50.784 45.8261 51.192C45.9461 51.6 46.1221 51.952 46.3541 52.248C46.5861 52.536 46.8741 52.76 47.2181 52.92C47.5701 53.08 47.9781 53.16 48.4421 53.16C48.9781 53.16 49.4221 53.104 49.7741 52.992C50.1261 52.88 50.3901 52.78 50.5661 52.692L50.8661 53.652C50.8101 53.692 50.7101 53.744 50.5661 53.808C50.4221 53.864 50.2421 53.92 50.0261 53.976C49.8101 54.032 49.5581 54.08 49.2701 54.12C48.9821 54.16 48.6701 54.18 48.3341 54.18ZM71.1715 45.684H72.3355V54H71.1715V50.16H67.1035V54H65.9395V45.684H67.1035V49.152H71.1715V45.684ZM93.6964 54C93.5604 53.64 93.4324 53.288 93.3124 52.944C93.1924 52.592 93.0684 52.236 92.9404 51.876H89.1724L88.4164 54H87.2044C87.5244 53.12 87.8244 52.308 88.1044 51.564C88.3844 50.812 88.6564 50.1 88.9204 49.428C89.1924 48.756 89.4604 48.116 89.7244 47.508C89.9884 46.892 90.2644 46.284 90.5524 45.684H91.6204C91.9084 46.284 92.1844 46.892 92.4484 47.508C92.7124 48.116 92.9764 48.756 93.2404 49.428C93.5124 50.1 93.7884 50.812 94.0684 51.564C94.3484 52.308 94.6484 53.12 94.9684 54H93.6964ZM92.6044 50.916C92.3484 50.22 92.0924 49.548 91.8364 48.9C91.5884 48.244 91.3284 47.616 91.0564 47.016C90.7764 47.616 90.5084 48.244 90.2524 48.9C90.0044 49.548 89.7564 50.22 89.5084 50.916H92.6044ZM109.837 54V45.684H114.913V46.68H111.001V49.152H114.481V50.124H111.001V53.004H115.213V54H109.837ZM137.153 45.684C136.849 46.564 136.557 47.38 136.277 48.132C136.005 48.876 135.737 49.584 135.473 50.256C135.209 50.928 134.945 51.572 134.681 52.188C134.425 52.796 134.161 53.4 133.889 54H132.797C132.525 53.4 132.257 52.796 131.993 52.188C131.737 51.572 131.473 50.928 131.201 50.256C130.937 49.584 130.665 48.876 130.385 48.132C130.105 47.38 129.817 46.564 129.521 45.684H130.805C131.237 46.948 131.661 48.164 132.077 49.332C132.493 50.5 132.921 51.596 133.361 52.62C133.801 51.604 134.229 50.512 134.645 49.344C135.061 48.168 135.481 46.948 135.905 45.684H137.153ZM156.866 54C156.73 53.64 156.602 53.288 156.482 52.944C156.362 52.592 156.238 52.236 156.11 51.876H152.342L151.586 54H150.374C150.694 53.12 150.994 52.308 151.274 51.564C151.554 50.812 151.826 50.1 152.09 49.428C152.362 48.756 152.63 48.116 152.894 47.508C153.158 46.892 153.434 46.284 153.722 45.684H154.79C155.078 46.284 155.354 46.892 155.618 47.508C155.882 48.116 156.146 48.756 156.41 49.428C156.682 50.1 156.958 50.812 157.238 51.564C157.518 52.308 157.818 53.12 158.138 54H156.866ZM155.774 50.916C155.518 50.22 155.262 49.548 155.006 48.9C154.758 48.244 154.498 47.616 154.226 47.016C153.946 47.616 153.678 48.244 153.422 48.9C153.174 49.548 152.926 50.22 152.678 50.916H155.774ZM1.696 65.836C1.696 65.124 1.8 64.496 2.008 63.952C2.224 63.408 2.512 62.956 2.872 62.596C3.24 62.228 3.664 61.952 4.144 61.768C4.632 61.584 5.148 61.492 5.692 61.492C6.228 61.492 6.732 61.584 7.204 61.768C7.684 61.952 8.104 62.228 8.464 62.596C8.824 62.956 9.108 63.408 9.316 63.952C9.532 64.496 9.64 65.124 9.64 65.836C9.64 66.548 9.532 67.176 9.316 67.72C9.108 68.264 8.824 68.72 8.464 69.088C8.104 69.448 7.684 69.72 7.204 69.904C6.732 70.088 6.228 70.18 5.692 70.18C5.148 70.18 4.632 70.088 4.144 69.904C3.664 69.72 3.24 69.448 2.872 69.088C2.512 68.72 2.224 68.264 2.008 67.72C1.8 67.176 1.696 66.548 1.696 65.836ZM2.92 65.836C2.92 66.34 2.984 66.8 3.112 67.216C3.24 67.624 3.42 67.972 3.652 68.26C3.892 68.548 4.18 68.772 4.516 68.932C4.86 69.084 5.244 69.16 5.668 69.16C6.092 69.16 6.472 69.084 6.808 68.932C7.144 68.772 7.428 68.548 7.66 68.26C7.9 67.972 8.084 67.624 8.212 67.216C8.34 66.8 8.404 66.34 8.404 65.836C8.404 65.332 8.34 64.876 8.212 64.468C8.084 64.052 7.9 63.7 7.66 63.412C7.428 63.124 7.144 62.904 6.808 62.752C6.472 62.592 6.092 62.512 5.668 62.512C5.244 62.512 4.86 62.592 4.516 62.752C4.18 62.904 3.892 63.124 3.652 63.412C3.42 63.7 3.24 64.052 3.112 64.468C2.984 64.876 2.92 65.332 2.92 65.836ZM30.1158 68.992V70H25.1118V61.684H26.2758V68.992H30.1158ZM49.6114 65.908H50.7754V69.796C50.6794 69.828 50.5394 69.864 50.3554 69.904C50.1794 69.944 49.9714 69.984 49.7314 70.024C49.4994 70.064 49.2434 70.096 48.9634 70.12C48.6834 70.152 48.3994 70.168 48.1114 70.168C47.5274 70.168 46.9954 70.072 46.5154 69.88C46.0354 69.688 45.6234 69.408 45.2794 69.04C44.9354 68.672 44.6674 68.22 44.4754 67.684C44.2914 67.148 44.1994 66.532 44.1994 65.836C44.1994 65.14 44.3034 64.524 44.5114 63.988C44.7274 63.444 45.0154 62.988 45.3754 62.62C45.7354 62.252 46.1554 61.972 46.6354 61.78C47.1234 61.588 47.6434 61.492 48.1954 61.492C48.5714 61.492 48.9034 61.516 49.1914 61.564C49.4874 61.612 49.7394 61.668 49.9474 61.732C50.1554 61.796 50.3234 61.86 50.4514 61.924C50.5874 61.988 50.6794 62.036 50.7274 62.068L50.3554 63.04C50.1234 62.888 49.8154 62.764 49.4314 62.668C49.0474 62.564 48.6554 62.512 48.2554 62.512C47.8314 62.512 47.4434 62.588 47.0914 62.74C46.7474 62.892 46.4514 63.112 46.2034 63.4C45.9634 63.688 45.7754 64.04 45.6394 64.456C45.5034 64.864 45.4354 65.324 45.4354 65.836C45.4354 66.332 45.4914 66.784 45.6034 67.192C45.7234 67.6 45.8994 67.952 46.1314 68.248C46.3714 68.536 46.6634 68.76 47.0074 68.92C47.3594 69.08 47.7714 69.16 48.2434 69.16C48.5794 69.16 48.8634 69.144 49.0954 69.112C49.3354 69.072 49.5074 69.036 49.6114 69.004V65.908ZM71.8939 70C71.7579 69.64 71.6299 69.288 71.5099 68.944C71.3899 68.592 71.2659 68.236 71.1379 67.876H67.3699L66.6139 70H65.4019C65.7219 69.12 66.0219 68.308 66.3019 67.564C66.5819 66.812 66.8539 66.1 67.1179 65.428C67.3899 64.756 67.6579 64.116 67.9219 63.508C68.1859 62.892 68.4619 62.284 68.7499 61.684H69.8179C70.1059 62.284 70.3819 62.892 70.6459 63.508C70.9099 64.116 71.1739 64.756 71.4379 65.428C71.7099 66.1 71.9859 66.812 72.2659 67.564C72.5459 68.308 72.8459 69.12 73.1659 70H71.8939ZM70.8019 66.916C70.5459 66.22 70.2899 65.548 70.0339 64.9C69.7859 64.244 69.5259 63.616 69.2539 63.016C68.9739 63.616 68.7059 64.244 68.4499 64.9C68.2019 65.548 67.9539 66.22 67.7059 66.916H70.8019Z" fill="white"/>
<path d="M10.908 18.32V21H1.64805V7.14H4.76805V18.32H10.908ZM13.2176 21V7.14H22.5776V9.76H16.3376V12.48H21.8776V15.04H16.3376V18.38H23.0376V21H13.2176ZM34.4312 7.14C34.6712 7.58 34.9445 8.12667 35.2512 8.78C35.5712 9.42 35.8978 10.12 36.2312 10.88C36.5778 11.6267 36.9178 12.3933 37.2512 13.18C37.5845 13.9667 37.8978 14.7067 38.1912 15.4C38.4845 14.7067 38.7978 13.9667 39.1312 13.18C39.4645 12.3933 39.7978 11.6267 40.1312 10.88C40.4778 10.12 40.8045 9.42 41.1112 8.78C41.4312 8.12667 41.7112 7.58 41.9512 7.14H44.7912C44.9245 8.06 45.0445 9.09333 45.1512 10.24C45.2712 11.3733 45.3712 12.56 45.4512 13.8C45.5445 15.0267 45.6245 16.26 45.6912 17.5C45.7712 18.74 45.8378 19.9067 45.8912 21H42.8512C42.8112 19.6533 42.7578 18.1867 42.6912 16.6C42.6245 15.0133 42.5245 13.4133 42.3912 11.8C42.1512 12.36 41.8845 12.98 41.5912 13.66C41.2978 14.34 41.0045 15.02 40.7112 15.7C40.4312 16.38 40.1578 17.0333 39.8912 17.66C39.6245 18.2733 39.3978 18.8 39.2112 19.24H37.0312C36.8445 18.8 36.6178 18.2733 36.3512 17.66C36.0845 17.0333 35.8045 16.38 35.5112 15.7C35.2312 15.02 34.9445 14.34 34.6512 13.66C34.3578 12.98 34.0912 12.36 33.8512 11.8C33.7178 13.4133 33.6178 15.0133 33.5512 16.6C33.4845 18.1867 33.4312 19.6533 33.3912 21H30.3512C30.4045 19.9067 30.4645 18.74 30.5312 17.5C30.6112 16.26 30.6912 15.0267 30.7712 13.8C30.8645 12.56 30.9645 11.3733 31.0712 10.24C31.1912 9.09333 31.3178 8.06 31.4512 7.14H34.4312ZM51.6204 14.06C51.6204 14.74 51.7004 15.3533 51.8604 15.9C52.0337 16.4467 52.2737 16.92 52.5804 17.32C52.9004 17.7067 53.2871 18.0067 53.7404 18.22C54.1937 18.4333 54.7137 18.54 55.3004 18.54C55.8737 18.54 56.3871 18.4333 56.8404 18.22C57.3071 18.0067 57.6937 17.7067 58.0004 17.32C58.3204 16.92 58.5604 16.4467 58.7204 15.9C58.8937 15.3533 58.9804 14.74 58.9804 14.06C58.9804 13.38 58.8937 12.7667 58.7204 12.22C58.5604 11.66 58.3204 11.1867 58.0004 10.8C57.6937 10.4 57.3071 10.0933 56.8404 9.88C56.3871 9.66667 55.8737 9.56 55.3004 9.56C54.7137 9.56 54.1937 9.67333 53.7404 9.9C53.2871 10.1133 52.9004 10.42 52.5804 10.82C52.2737 11.2067 52.0337 11.68 51.8604 12.24C51.7004 12.7867 51.6204 13.3933 51.6204 14.06ZM62.2004 14.06C62.2004 15.2467 62.0204 16.2933 61.6604 17.2C61.3137 18.0933 60.8337 18.8467 60.2204 19.46C59.6071 20.06 58.8737 20.5133 58.0204 20.82C57.1804 21.1267 56.2737 21.28 55.3004 21.28C54.3537 21.28 53.4604 21.1267 52.6204 20.82C51.7804 20.5133 51.0471 20.06 50.4204 19.46C49.7937 18.8467 49.3004 18.0933 48.9404 17.2C48.5804 16.2933 48.4004 15.2467 48.4004 14.06C48.4004 12.8733 48.5871 11.8333 48.9604 10.94C49.3337 10.0333 49.8337 9.27333 50.4604 8.66C51.1004 8.04667 51.8337 7.58667 52.6604 7.28C53.5004 6.97333 54.3804 6.82 55.3004 6.82C56.2471 6.82 57.1404 6.97333 57.9804 7.28C58.8204 7.58667 59.5537 8.04667 60.1804 8.66C60.8071 9.27333 61.3004 10.0333 61.6604 10.94C62.0204 11.8333 62.2004 12.8733 62.2004 14.06ZM70.5212 21.28C69.5478 21.28 68.7078 21.1467 68.0012 20.88C67.2945 20.6 66.7078 20.22 66.2412 19.74C65.7878 19.2467 65.4478 18.6667 65.2212 18C65.0078 17.32 64.9012 16.5733 64.9012 15.76V7.14H68.0212V15.5C68.0212 16.06 68.0812 16.54 68.2012 16.94C68.3345 17.3267 68.5078 17.6467 68.7212 17.9C68.9478 18.14 69.2145 18.3133 69.5212 18.42C69.8412 18.5267 70.1878 18.58 70.5612 18.58C71.3212 18.58 71.9345 18.3467 72.4012 17.88C72.8812 17.4133 73.1212 16.62 73.1212 15.5V7.14H76.2412V15.76C76.2412 16.5733 76.1278 17.32 75.9012 18C75.6745 18.68 75.3278 19.2667 74.8612 19.76C74.3945 20.24 73.8012 20.6133 73.0812 20.88C72.3612 21.1467 71.5078 21.28 70.5212 21.28ZM83.3218 18.62C83.7618 18.62 84.1218 18.5867 84.4018 18.52C84.6951 18.44 84.9285 18.34 85.1018 18.22C85.2751 18.0867 85.3951 17.9333 85.4618 17.76C85.5285 17.5867 85.5618 17.3933 85.5618 17.18C85.5618 16.7267 85.3485 16.3533 84.9218 16.06C84.4951 15.7533 83.7618 15.4267 82.7218 15.08C82.2685 14.92 81.8151 14.74 81.3618 14.54C80.9085 14.3267 80.5018 14.0667 80.1418 13.76C79.7818 13.44 79.4885 13.06 79.2618 12.62C79.0351 12.1667 78.9218 11.62 78.9218 10.98C78.9218 10.34 79.0418 9.76667 79.2818 9.26C79.5218 8.74 79.8618 8.3 80.3018 7.94C80.7418 7.58 81.2751 7.30667 81.9018 7.12C82.5285 6.92 83.2351 6.82 84.0218 6.82C84.9551 6.82 85.7618 6.92 86.4418 7.12C87.1218 7.32 87.6818 7.54 88.1218 7.78L87.2218 10.24C86.8351 10.04 86.4018 9.86667 85.9218 9.72C85.4551 9.56 84.8885 9.48 84.2218 9.48C83.4751 9.48 82.9351 9.58667 82.6018 9.8C82.2818 10 82.1218 10.3133 82.1218 10.74C82.1218 10.9933 82.1818 11.2067 82.3018 11.38C82.4218 11.5533 82.5885 11.7133 82.8018 11.86C83.0285 11.9933 83.2818 12.12 83.5618 12.24C83.8551 12.3467 84.1751 12.46 84.5218 12.58C85.2418 12.8467 85.8685 13.1133 86.4018 13.38C86.9351 13.6333 87.3751 13.9333 87.7218 14.28C88.0818 14.6267 88.3485 15.0333 88.5218 15.5C88.6951 15.9667 88.7818 16.5333 88.7818 17.2C88.7818 18.4933 88.3285 19.5 87.4218 20.22C86.5151 20.9267 85.1485 21.28 83.3218 21.28C82.7085 21.28 82.1551 21.24 81.6618 21.16C81.1685 21.0933 80.7285 21.0067 80.3418 20.9C79.9685 20.7933 79.6418 20.68 79.3618 20.56C79.0951 20.44 78.8685 20.3267 78.6818 20.22L79.5618 17.74C79.9751 17.9667 80.4818 18.1733 81.0818 18.36C81.6951 18.5333 82.4418 18.62 83.3218 18.62ZM95.2624 18.62C95.7024 18.62 96.0624 18.5867 96.3424 18.52C96.6357 18.44 96.8691 18.34 97.0424 18.22C97.2157 18.0867 97.3357 17.9333 97.4024 17.76C97.4691 17.5867 97.5024 17.3933 97.5024 17.18C97.5024 16.7267 97.2891 16.3533 96.8624 16.06C96.4357 15.7533 95.7024 15.4267 94.6624 15.08C94.2091 14.92 93.7557 14.74 93.3024 14.54C92.8491 14.3267 92.4424 14.0667 92.0824 13.76C91.7224 13.44 91.4291 13.06 91.2024 12.62C90.9757 12.1667 90.8624 11.62 90.8624 10.98C90.8624 10.34 90.9824 9.76667 91.2224 9.26C91.4624 8.74 91.8024 8.3 92.2424 7.94C92.6824 7.58 93.2157 7.30667 93.8424 7.12C94.4691 6.92 95.1757 6.82 95.9624 6.82C96.8957 6.82 97.7024 6.92 98.3824 7.12C99.0624 7.32 99.6224 7.54 100.062 7.78L99.1624 10.24C98.7757 10.04 98.3424 9.86667 97.8624 9.72C97.3957 9.56 96.8291 9.48 96.1624 9.48C95.4157 9.48 94.8757 9.58667 94.5424 9.8C94.2224 10 94.0624 10.3133 94.0624 10.74C94.0624 10.9933 94.1224 11.2067 94.2424 11.38C94.3624 11.5533 94.5291 11.7133 94.7424 11.86C94.9691 11.9933 95.2224 12.12 95.5024 12.24C95.7957 12.3467 96.1157 12.46 96.4624 12.58C97.1824 12.8467 97.8091 13.1133 98.3424 13.38C98.8757 13.6333 99.3157 13.9333 99.6624 14.28C100.022 14.6267 100.289 15.0333 100.462 15.5C100.636 15.9667 100.722 16.5333 100.722 17.2C100.722 18.4933 100.269 19.5 99.3624 20.22C98.4557 20.9267 97.0891 21.28 95.2624 21.28C94.6491 21.28 94.0957 21.24 93.6024 21.16C93.1091 21.0933 92.6691 21.0067 92.2824 20.9C91.9091 20.7933 91.5824 20.68 91.3024 20.56C91.0357 20.44 90.8091 20.3267 90.6224 20.22L91.5024 17.74C91.9157 17.9667 92.4224 18.1733 93.0224 18.36C93.6357 18.5333 94.3824 18.62 95.2624 18.62ZM103.423 21V7.14H112.783V9.76H106.543V12.48H112.083V15.04H106.543V18.38H113.243V21H103.423Z" fill="white"/>
</svg>
