<svg width="113" height="16" viewBox="0 0 113 16" fill="none" xmlns="http://www.w3.org/2000/svg">
<path d="M9.90805 12.32V15H0.648046V1.14H3.76805V12.32H9.90805ZM12.2176 15V1.14H21.5776V3.76H15.3376V6.48H20.8776V9.04H15.3376V12.38H22.0376V15H12.2176ZM33.4312 1.14C33.6712 1.58 33.9445 2.12667 34.2512 2.78C34.5712 3.42 34.8978 4.12 35.2312 4.88C35.5778 5.62667 35.9178 6.39333 36.2512 7.18C36.5845 7.96667 36.8978 8.70667 37.1912 9.4C37.4845 8.70667 37.7978 7.96667 38.1312 7.18C38.4645 6.39333 38.7978 5.62667 39.1312 4.88C39.4778 4.12 39.8045 3.42 40.1112 2.78C40.4312 2.12667 40.7112 1.58 40.9512 1.14H43.7912C43.9245 2.06 44.0445 3.09333 44.1512 4.24C44.2712 5.37333 44.3712 6.56 44.4512 7.8C44.5445 9.02667 44.6245 10.26 44.6912 11.5C44.7712 12.74 44.8378 13.9067 44.8912 15H41.8512C41.8112 13.6533 41.7578 12.1867 41.6912 10.6C41.6245 9.01333 41.5245 7.41333 41.3912 5.8C41.1512 6.36 40.8845 6.98 40.5912 7.66C40.2978 8.34 40.0045 9.02 39.7112 9.7C39.4312 10.38 39.1578 11.0333 38.8912 11.66C38.6245 12.2733 38.3978 12.8 38.2112 13.24H36.0312C35.8445 12.8 35.6178 12.2733 35.3512 11.66C35.0845 11.0333 34.8045 10.38 34.5112 9.7C34.2312 9.02 33.9445 8.34 33.6512 7.66C33.3578 6.98 33.0912 6.36 32.8512 5.8C32.7178 7.41333 32.6178 9.01333 32.5512 10.6C32.4845 12.1867 32.4312 13.6533 32.3912 15H29.3512C29.4045 13.9067 29.4645 12.74 29.5312 11.5C29.6112 10.26 29.6912 9.02667 29.7712 7.8C29.8645 6.56 29.9645 5.37333 30.0712 4.24C30.1912 3.09333 30.3178 2.06 30.4512 1.14H33.4312ZM50.6204 8.06C50.6204 8.74 50.7004 9.35333 50.8604 9.9C51.0337 10.4467 51.2737 10.92 51.5804 11.32C51.9004 11.7067 52.2871 12.0067 52.7404 12.22C53.1937 12.4333 53.7137 12.54 54.3004 12.54C54.8737 12.54 55.3871 12.4333 55.8404 12.22C56.3071 12.0067 56.6937 11.7067 57.0004 11.32C57.3204 10.92 57.5604 10.4467 57.7204 9.9C57.8937 9.35333 57.9804 8.74 57.9804 8.06C57.9804 7.38 57.8937 6.76667 57.7204 6.22C57.5604 5.66 57.3204 5.18667 57.0004 4.8C56.6937 4.4 56.3071 4.09333 55.8404 3.88C55.3871 3.66667 54.8737 3.56 54.3004 3.56C53.7137 3.56 53.1937 3.67333 52.7404 3.9C52.2871 4.11333 51.9004 4.42 51.5804 4.82C51.2737 5.20667 51.0337 5.68 50.8604 6.24C50.7004 6.78667 50.6204 7.39333 50.6204 8.06ZM61.2004 8.06C61.2004 9.24667 61.0204 10.2933 60.6604 11.2C60.3137 12.0933 59.8337 12.8467 59.2204 13.46C58.6071 14.06 57.8737 14.5133 57.0204 14.82C56.1804 15.1267 55.2737 15.28 54.3004 15.28C53.3537 15.28 52.4604 15.1267 51.6204 14.82C50.7804 14.5133 50.0471 14.06 49.4204 13.46C48.7937 12.8467 48.3004 12.0933 47.9404 11.2C47.5804 10.2933 47.4004 9.24667 47.4004 8.06C47.4004 6.87333 47.5871 5.83333 47.9604 4.94C48.3337 4.03333 48.8337 3.27333 49.4604 2.66C50.1004 2.04667 50.8337 1.58667 51.6604 1.28C52.5004 0.973332 53.3804 0.819999 54.3004 0.819999C55.2471 0.819999 56.1404 0.973332 56.9804 1.28C57.8204 1.58667 58.5537 2.04667 59.1804 2.66C59.8071 3.27333 60.3004 4.03333 60.6604 4.94C61.0204 5.83333 61.2004 6.87333 61.2004 8.06ZM69.5212 15.28C68.5478 15.28 67.7078 15.1467 67.0012 14.88C66.2945 14.6 65.7078 14.22 65.2412 13.74C64.7878 13.2467 64.4478 12.6667 64.2212 12C64.0078 11.32 63.9012 10.5733 63.9012 9.76V1.14H67.0212V9.5C67.0212 10.06 67.0812 10.54 67.2012 10.94C67.3345 11.3267 67.5078 11.6467 67.7212 11.9C67.9478 12.14 68.2145 12.3133 68.5212 12.42C68.8412 12.5267 69.1878 12.58 69.5612 12.58C70.3212 12.58 70.9345 12.3467 71.4012 11.88C71.8812 11.4133 72.1212 10.62 72.1212 9.5V1.14H75.2412V9.76C75.2412 10.5733 75.1278 11.32 74.9012 12C74.6745 12.68 74.3278 13.2667 73.8612 13.76C73.3945 14.24 72.8012 14.6133 72.0812 14.88C71.3612 15.1467 70.5078 15.28 69.5212 15.28ZM82.3218 12.62C82.7618 12.62 83.1218 12.5867 83.4018 12.52C83.6951 12.44 83.9285 12.34 84.1018 12.22C84.2751 12.0867 84.3951 11.9333 84.4618 11.76C84.5285 11.5867 84.5618 11.3933 84.5618 11.18C84.5618 10.7267 84.3485 10.3533 83.9218 10.06C83.4951 9.75333 82.7618 9.42667 81.7218 9.08C81.2685 8.92 80.8151 8.74 80.3618 8.54C79.9085 8.32667 79.5018 8.06667 79.1418 7.76C78.7818 7.44 78.4885 7.06 78.2618 6.62C78.0351 6.16667 77.9218 5.62 77.9218 4.98C77.9218 4.34 78.0418 3.76667 78.2818 3.26C78.5218 2.74 78.8618 2.3 79.3018 1.94C79.7418 1.58 80.2751 1.30667 80.9018 1.12C81.5285 0.919999 82.2351 0.819999 83.0218 0.819999C83.9551 0.819999 84.7618 0.919999 85.4418 1.12C86.1218 1.32 86.6818 1.54 87.1218 1.78L86.2218 4.24C85.8351 4.04 85.4018 3.86667 84.9218 3.72C84.4551 3.56 83.8885 3.48 83.2218 3.48C82.4751 3.48 81.9351 3.58667 81.6018 3.8C81.2818 4 81.1218 4.31333 81.1218 4.74C81.1218 4.99333 81.1818 5.20667 81.3018 5.38C81.4218 5.55333 81.5885 5.71333 81.8018 5.86C82.0285 5.99333 82.2818 6.12 82.5618 6.24C82.8551 6.34667 83.1751 6.46 83.5218 6.58C84.2418 6.84667 84.8685 7.11333 85.4018 7.38C85.9351 7.63333 86.3751 7.93333 86.7218 8.28C87.0818 8.62667 87.3485 9.03333 87.5218 9.5C87.6951 9.96667 87.7818 10.5333 87.7818 11.2C87.7818 12.4933 87.3285 13.5 86.4218 14.22C85.5151 14.9267 84.1485 15.28 82.3218 15.28C81.7085 15.28 81.1551 15.24 80.6618 15.16C80.1685 15.0933 79.7285 15.0067 79.3418 14.9C78.9685 14.7933 78.6418 14.68 78.3618 14.56C78.0951 14.44 77.8685 14.3267 77.6818 14.22L78.5618 11.74C78.9751 11.9667 79.4818 12.1733 80.0818 12.36C80.6951 12.5333 81.4418 12.62 82.3218 12.62ZM94.2624 12.62C94.7024 12.62 95.0624 12.5867 95.3424 12.52C95.6357 12.44 95.8691 12.34 96.0424 12.22C96.2157 12.0867 96.3357 11.9333 96.4024 11.76C96.4691 11.5867 96.5024 11.3933 96.5024 11.18C96.5024 10.7267 96.2891 10.3533 95.8624 10.06C95.4357 9.75333 94.7024 9.42667 93.6624 9.08C93.2091 8.92 92.7557 8.74 92.3024 8.54C91.8491 8.32667 91.4424 8.06667 91.0824 7.76C90.7224 7.44 90.4291 7.06 90.2024 6.62C89.9757 6.16667 89.8624 5.62 89.8624 4.98C89.8624 4.34 89.9824 3.76667 90.2224 3.26C90.4624 2.74 90.8024 2.3 91.2424 1.94C91.6824 1.58 92.2157 1.30667 92.8424 1.12C93.4691 0.919999 94.1757 0.819999 94.9624 0.819999C95.8957 0.819999 96.7024 0.919999 97.3824 1.12C98.0624 1.32 98.6224 1.54 99.0624 1.78L98.1624 4.24C97.7757 4.04 97.3424 3.86667 96.8624 3.72C96.3957 3.56 95.8291 3.48 95.1624 3.48C94.4157 3.48 93.8757 3.58667 93.5424 3.8C93.2224 4 93.0624 4.31333 93.0624 4.74C93.0624 4.99333 93.1224 5.20667 93.2424 5.38C93.3624 5.55333 93.5291 5.71333 93.7424 5.86C93.9691 5.99333 94.2224 6.12 94.5024 6.24C94.7957 6.34667 95.1157 6.46 95.4624 6.58C96.1824 6.84667 96.8091 7.11333 97.3424 7.38C97.8757 7.63333 98.3157 7.93333 98.6624 8.28C99.0224 8.62667 99.2891 9.03333 99.4624 9.5C99.6358 9.96667 99.7224 10.5333 99.7224 11.2C99.7224 12.4933 99.2691 13.5 98.3624 14.22C97.4557 14.9267 96.0891 15.28 94.2624 15.28C93.6491 15.28 93.0957 15.24 92.6024 15.16C92.1091 15.0933 91.6691 15.0067 91.2824 14.9C90.9091 14.7933 90.5824 14.68 90.3024 14.56C90.0357 14.44 89.8091 14.3267 89.6224 14.22L90.5024 11.74C90.9157 11.9667 91.4224 12.1733 92.0224 12.36C92.6357 12.5333 93.3824 12.62 94.2624 12.62ZM102.423 15V1.14H111.783V3.76H105.543V6.48H111.083V9.04H105.543V12.38H112.243V15H102.423Z" fill="white"/>
</svg>
